<svg width="36" height="36" viewBox="0 0 36 36" fill="none" xmlns="http://www.w3.org/2000/svg">
<circle cx="18" cy="18" r="18" fill="#464646"/>
<path d="M18.1665 15.4167C16.676 15.4167 15.4165 16.6762 15.4165 18.1667C15.4165 19.6572 16.676 20.9167 18.1665 20.9167C19.657 20.9167 20.9165 19.6572 20.9165 18.1667C20.9165 16.6762 19.657 15.4167 18.1665 15.4167Z" fill="white"/>
<path d="M25.5 11.75H23.1295L20.6481 9.26858C20.5631 9.1833 20.4621 9.11566 20.3509 9.06956C20.2396 9.02347 20.1204 8.99983 20 9H16.3333C16.2129 8.99983 16.0937 9.02347 15.9825 9.06956C15.8712 9.11566 15.7702 9.1833 15.6853 9.26858L13.2038 11.75H10.8333C9.82225 11.75 9 12.5723 9 13.5833V23.6667C9 24.6778 9.82225 25.5 10.8333 25.5H25.5C26.5111 25.5 27.3333 24.6778 27.3333 23.6667V13.5833C27.3333 12.5723 26.5111 11.75 25.5 11.75ZM18.1667 22.75C15.6825 22.75 13.5833 20.6508 13.5833 18.1667C13.5833 15.6825 15.6825 13.5833 18.1667 13.5833C20.6508 13.5833 22.75 15.6825 22.75 18.1667C22.75 20.6508 20.6508 22.75 18.1667 22.75Z" fill="white"/>
</svg>
