<svg width="40" height="40" viewBox="0 0 40 40" fill="none" xmlns="http://www.w3.org/2000/svg">
<circle cx="20" cy="20" r="18.5" fill="black" stroke="white" stroke-width="3"/>
<path d="M16.9902 18.2324H13.9902V15.2324" stroke="white" stroke-width="2" stroke-linecap="round" stroke-linejoin="round"/>
<path d="M16.1116 23.8891C16.8807 24.6583 17.8607 25.1821 18.9276 25.3943C19.9945 25.6065 21.1004 25.4976 22.1054 25.0813C23.1104 24.665 23.9694 23.9601 24.5737 23.0556C25.1781 22.1511 25.5006 21.0878 25.5006 20C25.5006 18.9122 25.1781 17.8488 24.5737 16.9444C23.9694 16.0399 23.1104 15.3349 22.1054 14.9187C21.1004 14.5024 19.9945 14.3935 18.9276 14.6057C17.8607 14.8179 16.8807 15.3417 16.1116 16.1109L13.9902 18.2322" stroke="white" stroke-width="2" stroke-linecap="round" stroke-linejoin="round"/>
</svg>
