<svg width="100%" height="100%" viewBox="0 0 121 120" fill="none" xmlns="http://www.w3.org/2000/svg">
<path d="M22.8529 47.3396C35.1981 47.3396 45.2059 37.3703 45.2059 25.0726C45.2059 12.7749 35.1981 2.80566 22.8529 2.80566C10.5078 2.80566 0.5 12.7749 0.5 25.0726C0.5 37.3703 10.5078 47.3396 22.8529 47.3396Z" fill="#73EABA"/>
<path d="M22.8529 120C35.1981 120 45.2059 110.031 45.2059 97.7331C45.2059 85.4354 35.1981 75.4662 22.8529 75.4662C10.5078 75.4662 0.5 85.4354 0.5 97.7331C0.5 110.031 10.5078 120 22.8529 120Z" fill="#73EABA"/>
<path d="M98.1471 47.3396C110.492 47.3396 120.5 37.3703 120.5 25.0726C120.5 12.7749 110.492 2.80566 98.1471 2.80566C85.8019 2.80566 75.7941 12.7749 75.7941 25.0726C75.7941 37.3703 85.8019 47.3396 98.1471 47.3396Z" fill="#73EABA"/>
<path d="M98.1471 120C110.492 120 120.5 110.031 120.5 97.7331C120.5 85.4354 110.492 75.4662 98.1471 75.4662C85.8019 75.4662 75.7941 85.4354 75.7941 97.7331C75.7941 110.031 85.8019 120 98.1471 120Z" fill="#73EABA"/>
<path d="M22.853 53.4161V65.1356V53.4161Z" fill="#FFFFFF"/>
<path d="M22.853 53.4161V65.1356" stroke="#101010" stroke-width="3"/>
<path d="M98.1471 53.4161V65.1356V53.4161Z" fill="#FFFFFF"/>
<path d="M98.1471 53.4161V65.1356" stroke="#101010" stroke-width="3"/>
<path d="M67.5588 18.7511H53.4412H67.5588Z" fill="#FFFFFF"/>
<path d="M67.5588 18.7511H53.4412" stroke="#101010" stroke-width="3"/>
<path d="M67.5588 98.4434H53.4412H67.5588Z" fill="#FFFFFF"/>
<path d="M67.5588 98.4434H53.4412" stroke="#101010" stroke-width="3"/>
<path d="M98.1471 21.0951C103.995 21.0951 108.735 16.3729 108.735 10.5476C108.735 4.7224 103.995 0.00012207 98.1471 0.00012207C92.2994 0.00012207 87.5588 4.7224 87.5588 10.5476C87.5588 16.3729 92.2994 21.0951 98.1471 21.0951Z" fill="#FFFFFF"/>
<path d="M98.147 19.337C103.02 19.337 106.971 15.4018 106.971 10.5474C106.971 5.69304 103.02 1.75781 98.147 1.75781C93.2739 1.75781 89.3235 5.69304 89.3235 10.5474C89.3235 15.4018 93.2739 19.337 98.147 19.337Z" stroke="#101010" stroke-width="3"/>
<path d="M98.1471 93.7555C103.995 93.7555 108.735 89.0332 108.735 83.208C108.735 77.3828 103.995 72.6605 98.1471 72.6605C92.2994 72.6605 87.5588 77.3828 87.5588 83.208C87.5588 89.0332 92.2994 93.7555 98.1471 93.7555Z" fill="#FFFFFF"/>
<path d="M98.147 91.9975C103.02 91.9975 106.971 88.0623 106.971 83.2079C106.971 78.3536 103.02 74.4183 98.147 74.4183C93.2739 74.4183 89.3235 78.3536 89.3235 83.2079C89.3235 88.0623 93.2739 91.9975 98.147 91.9975Z" stroke="#101010" stroke-width="3"/>
<path d="M22.8529 21.0951C28.7007 21.0951 33.4412 16.3729 33.4412 10.5476C33.4412 4.7224 28.7007 0.00012207 22.8529 0.00012207C17.0052 0.00012207 12.2647 4.7224 12.2647 10.5476C12.2647 16.3729 17.0052 21.0951 22.8529 21.0951Z" fill="#FFFFFF"/>
<path d="M22.8529 19.337C27.726 19.337 31.6764 15.4018 31.6764 10.5474C31.6764 5.69304 27.726 1.75781 22.8529 1.75781C17.9798 1.75781 14.0294 5.69304 14.0294 10.5474C14.0294 15.4018 17.9798 19.337 22.8529 19.337Z" stroke="#101010" stroke-width="3"/>
<path d="M22.8529 93.7555C28.7007 93.7555 33.4412 89.0332 33.4412 83.208C33.4412 77.3828 28.7007 72.6605 22.8529 72.6605C17.0052 72.6605 12.2647 77.3828 12.2647 83.208C12.2647 89.0332 17.0052 93.7555 22.8529 93.7555Z" fill="#FFFFFF"/>
<path d="M22.8529 91.9975C27.726 91.9975 31.6764 88.0623 31.6764 83.2079C31.6764 78.3536 27.726 74.4183 22.8529 74.4183C17.9798 74.4183 14.0294 78.3536 14.0294 83.2079C14.0294 88.0623 17.9798 91.9975 22.8529 91.9975Z" stroke="#101010" stroke-width="3"/>
<path d="M98.0107 45.5815C93.226 45.5815 88.626 45.3882 85.0589 45.0377C81.0095 44.6393 79.3613 44.1459 78.7448 43.8916C78.8154 41.3602 79.3001 38.9073 80.1919 36.5915C81.1354 34.1363 82.4942 31.9401 84.2272 30.0638C87.8272 26.1694 92.7719 24.0248 98.1472 24.0248C100.906 24.0248 103.531 24.5662 105.948 25.635C108.262 26.657 110.321 28.1289 112.07 30.0111C115.47 33.6734 117.402 38.5756 117.55 43.8787C116.92 44.1342 115.241 44.6287 111.13 45.0307C107.494 45.3858 102.835 45.5815 98.0119 45.5815H98.0107Z" fill="#FFFFFF"/>
<path d="M98.1471 25.7827C95.6447 25.7827 93.2647 26.2784 91.0729 27.257C88.9812 28.191 87.1153 29.5364 85.5259 31.2557C82.7 34.3121 80.9812 38.2873 80.5871 42.6071C81.54 42.8239 83.1541 43.1005 85.7988 43.3419C89.2153 43.6525 93.5529 43.8236 98.0106 43.8236C102.512 43.8236 106.909 43.6501 110.394 43.3337C113.094 43.0888 114.738 42.8087 115.707 42.5895C115.313 38.2311 113.596 34.2453 110.774 31.2053C109.191 29.5001 107.327 28.1664 105.233 27.2417C103.042 26.2737 100.658 25.7827 98.1471 25.7827ZM98.1471 22.2668C110.492 22.2668 119.324 32.3128 119.324 44.5338C119.324 46.3972 108.645 47.3394 98.0106 47.3394C87.4682 47.3394 76.9706 46.4124 76.9706 44.5338C76.9706 32.4639 85.8023 22.2668 98.1471 22.2668Z" fill="#101010"/>
<path d="M98.0107 118.242C93.226 118.242 88.626 118.049 85.0589 117.698C81.0095 117.3 79.3613 116.807 78.7448 116.552C78.8154 114.021 79.3001 111.568 80.1919 109.252C81.1354 106.797 82.4942 104.601 84.2272 102.724C87.8272 98.8301 92.7719 96.6854 98.1472 96.6854C100.906 96.6854 103.531 97.2269 105.948 98.2957C108.262 99.3176 110.321 100.79 112.07 102.672C115.47 106.334 117.402 111.236 117.55 116.539C116.92 116.795 115.241 117.289 111.13 117.691C107.494 118.046 102.835 118.242 98.0119 118.242H98.0107Z" fill="#FFFFFF"/>
<path d="M98.1471 98.4433C95.6447 98.4433 93.2647 98.9391 91.0729 99.9176C88.9812 100.852 87.1153 102.197 85.5259 103.916C82.7 106.973 80.9812 110.948 80.5871 115.268C81.54 115.485 83.1541 115.761 85.7988 116.003C89.2153 116.313 93.5529 116.484 98.0106 116.484C102.512 116.484 106.909 116.311 110.394 115.994C113.094 115.749 114.738 115.469 115.707 115.25C115.313 110.892 113.596 106.906 110.774 103.866C109.191 102.161 107.327 100.827 105.233 99.9024C103.042 98.9344 100.658 98.4433 98.1471 98.4433ZM98.1471 94.9275C110.492 94.9275 119.324 104.973 119.324 117.194C119.324 119.058 108.645 120 98.0106 120C87.4682 120 76.9706 119.073 76.9706 117.194C76.9706 105.125 85.8023 94.9275 98.1471 94.9275Z" fill="#101010"/>
<path d="M22.7165 45.5815C17.9318 45.5815 13.3318 45.3882 9.76474 45.0377C5.71533 44.6393 4.06709 44.1459 3.45062 43.8916C3.52121 41.3602 4.00592 38.9073 4.89768 36.5915C5.84121 34.1363 7.20003 31.9401 8.93298 30.0638C12.533 26.1694 17.4777 24.0248 22.853 24.0248C25.6118 24.0248 28.2365 24.5662 30.6542 25.635C32.9683 26.657 35.0271 28.1289 36.7753 30.0111C40.1753 33.6734 42.1083 38.5756 42.2553 43.8787C41.6259 44.1342 39.9471 44.6287 35.8353 45.0307C32.2 45.3858 27.5412 45.5815 22.7177 45.5815H22.7165Z" fill="#FFFFFF"/>
<path d="M22.853 25.7827C20.3506 25.7827 17.9706 26.2784 15.7789 27.257C13.6871 28.191 11.8212 29.5364 10.2318 31.2557C7.40592 34.3121 5.6871 38.2873 5.29298 42.6071C6.24592 42.8239 7.86004 43.1005 10.5047 43.3419C13.9212 43.6525 18.2589 43.8236 22.7165 43.8236C27.2177 43.8236 31.6153 43.6501 35.1 43.3337C37.8 43.0888 39.4436 42.8087 40.413 42.5895C40.0189 38.2311 38.3024 34.2453 35.48 31.2053C33.8965 29.5001 32.033 28.1664 29.9389 27.2417C27.7483 26.2737 25.3636 25.7827 22.853 25.7827ZM22.853 22.2668C35.1977 22.2668 44.0294 32.3128 44.0294 44.5338C44.0294 46.3972 33.3506 47.3394 22.7165 47.3394C12.1742 47.3394 1.67651 46.4124 1.67651 44.5338C1.67651 32.4639 10.5083 22.2668 22.853 22.2668Z" fill="#101010"/>
<path d="M22.7165 118.242C17.9318 118.242 13.3318 118.049 9.76474 117.698C5.71533 117.3 4.06709 116.807 3.45062 116.552C3.52121 114.021 4.00592 111.568 4.89768 109.252C5.84121 106.797 7.20003 104.601 8.93298 102.724C12.533 98.8301 17.4777 96.6854 22.853 96.6854C25.6118 96.6854 28.2365 97.2269 30.6542 98.2957C32.9683 99.3176 35.0271 100.79 36.7753 102.672C40.1753 106.334 42.1083 111.236 42.2553 116.539C41.6259 116.795 39.9471 117.289 35.8353 117.691C32.2 118.046 27.5412 118.242 22.7177 118.242H22.7165Z" fill="#FFFFFF"/>
<path d="M22.853 98.4433C20.3506 98.4433 17.9706 98.9391 15.7789 99.9176C13.6871 100.852 11.8212 102.197 10.2318 103.916C7.40592 106.973 5.6871 110.948 5.29298 115.268C6.24592 115.485 7.86004 115.761 10.5047 116.003C13.9212 116.313 18.2589 116.484 22.7165 116.484C27.2177 116.484 31.6153 116.311 35.1 115.994C37.8 115.749 39.4436 115.469 40.413 115.25C40.0189 110.892 38.3024 106.906 35.48 103.866C33.8965 102.161 32.033 100.827 29.9389 99.9024C27.7483 98.9344 25.3636 98.4433 22.853 98.4433ZM22.853 94.9275C35.1977 94.9275 44.0294 104.973 44.0294 117.194C44.0294 119.058 33.3506 120 22.7165 120C12.1742 120 1.67651 119.073 1.67651 117.194C1.67651 105.125 10.5083 94.9275 22.853 94.9275Z" fill="#101010"/>
</svg>
