<svg width="112" height="112" viewBox="0 0 112 112" fill="none" xmlns="http://www.w3.org/2000/svg">
<path d="M56 111.936C86.9279 111.936 112 86.8786 112 55.9682C112 25.0578 86.9279 0 56 0C25.0721 0 0 25.0578 0 55.9682C0 86.8786 25.0721 111.936 56 111.936Z" fill="#6196FF"/>
<path d="M96.3457 94.7815C91.0771 80.615 81.1172 75.2528 56.3446 75.2528C31.2744 75.2528 21.3742 80.7433 16.1553 95.2948C21.4061 100.61 27.6684 104.82 34.5729 107.679C41.4774 110.537 48.8845 111.985 56.3577 111.938C63.8309 111.89 71.2191 110.348 78.0867 107.403C84.9544 104.457 91.1627 100.168 96.3457 94.7865V94.7815Z" fill="#0041E2" stroke="#0041E2" stroke-miterlimit="10"/>
<path d="M77.7685 46.4714C77.378 46.4016 76.9803 46.3815 76.5848 46.4117C76.5848 46.2008 76.5848 45.9886 76.5848 45.7764C76.5848 30.5044 67.82 19.6798 55.6364 19.6798C43.4529 19.6798 35.9416 30.6925 35.9416 45.9644C35.9416 46.2541 35.9417 46.5451 35.9506 46.8361C35.0616 46.4319 34.0714 46.3048 33.1091 46.4714C29.8785 47.0572 28.5741 50.8742 29.6306 54.7446C30.7545 58.8628 34.2991 61.9682 37.5296 61.3837C37.8471 61.3273 38.1566 61.2326 38.4514 61.1017C40.2961 66.1728 43.1999 70.5045 47.3052 72.9911V80.0305C47.3052 82.4252 48.257 84.7218 49.9513 86.4151C51.6456 88.1084 53.9435 89.0597 56.3396 89.0597C58.7356 89.0597 61.0335 88.1084 62.7277 86.4151C64.422 84.7218 65.3738 82.4252 65.3738 80.0305V72.4066C69.0913 69.9581 71.8934 66.0889 73.7649 61.4384C76.8772 61.6925 80.1662 58.6849 81.2418 54.7459C82.3047 50.8742 81.0003 47.0572 77.7685 46.4714Z" fill="white"/>
<path d="M54.4272 54.8983C54.0143 55.0492 53.6585 55.3247 53.4093 55.6867C53.1601 56.0487 53.0297 56.4793 53.0364 56.9187C53.0542 57.8196 53.7254 58.5553 54.5874 58.7637C55.0725 58.885 55.5853 58.8234 56.0279 58.5908C56.389 58.399 56.0686 57.8513 55.7063 58.0419C55.0477 58.3901 54.0878 58.0839 53.7737 57.3736C53.475 56.6938 53.8792 55.7548 54.6014 55.507C54.6816 55.4827 54.7495 55.4286 54.7909 55.3558C54.8323 55.2829 54.8441 55.1969 54.8239 55.1156C54.8007 55.0347 54.7467 54.9661 54.6735 54.9245C54.6003 54.883 54.5137 54.8717 54.4323 54.8933L54.4272 54.8983Z" fill="#0041E2" stroke="#0041E2" stroke-width="0.25"/>
<path d="M49.2045 48.6811C49.2045 47.933 48.5977 47.3266 47.8492 47.3266C47.1007 47.3266 46.4939 47.933 46.4939 48.6811V50.4295C46.4939 51.1776 47.1007 51.784 47.8492 51.784C48.5977 51.784 49.2045 51.1776 49.2045 50.4295V48.6811Z" fill="#0041E2"/>
<path d="M64.6161 48.6811C64.6161 47.933 64.0093 47.3266 63.2608 47.3266C62.5123 47.3266 61.9055 47.933 61.9055 48.6811V50.4295C61.9055 51.1776 62.5123 51.784 63.2608 51.784C64.0093 51.784 64.6161 51.1776 64.6161 50.4295V48.6811Z" fill="#0041E2"/>
<path d="M76.7857 29.5146C74.7426 24.8132 69.7932 20.1639 64.6988 19.0877C62.5514 18.6353 60.249 18.2783 58.019 18.9073C54.6728 17.4257 50.2636 17.6747 46.789 19.5261C42.6303 21.7408 39.0998 26.4257 36.4668 27.277C33.8337 28.1284 29.4742 27.2262 29.2759 26.737C29.6369 27.5998 31.2541 30.1309 34.0511 32.6951C33.0658 36.9962 33.493 44.3609 37.2779 48.7523C36.5901 44.6188 37.1202 40.4003 38.2632 36.352L38.3814 35.9339C39.6596 36.7012 41.0062 37.3482 42.404 37.8666C50.3946 40.8132 63.0816 42.1157 73.5233 38.7357C74.2671 42.0289 74.6841 45.3874 74.768 48.7624C74.768 48.7624 81.608 40.6061 76.7857 29.5146Z" fill="#0041E2"/>
<path d="M77.0604 29.3532C75.8831 26.6633 73.9722 24.2707 71.732 22.3876C70.5964 21.4192 69.3472 20.5923 68.012 19.925C66.6632 19.2793 65.2304 18.8259 63.7554 18.5781C61.8293 18.2262 59.8435 18.0699 57.9339 18.601L58.1792 18.6328C55.9315 17.648 53.423 17.4295 51.01 17.8031C48.5969 18.1766 46.3873 19.2122 44.4243 20.6671C42.6012 22.0165 40.9916 23.6061 39.2613 25.0724C38.5925 25.6417 37.9022 26.2033 37.1317 26.629C36.3613 27.0546 35.4853 27.2198 34.6093 27.277C33.4869 27.3452 32.3603 27.2774 31.2542 27.075C30.8288 27.0037 30.409 26.9022 29.998 26.7713C29.8802 26.7374 29.7661 26.6919 29.6574 26.6353C29.6268 26.6188 29.4845 26.5591 29.5747 26.5934C29.5604 26.5844 29.5479 26.5727 29.5379 26.5591C29.501 26.5184 29.5811 26.6341 29.5506 26.5705C29.3713 26.1957 28.8449 26.5235 29.0013 26.8907C29.3624 27.7433 29.9421 28.5248 30.4952 29.2592C31.4935 30.5748 32.6083 31.7979 33.8262 32.9136L33.7448 32.6048C33.2871 34.6201 33.193 36.7255 33.3418 38.7815C33.5134 41.1372 34.0143 43.4828 34.9767 45.6493C35.504 46.8512 36.2034 47.9701 37.0529 48.9708C37.2805 49.2376 37.6301 48.9403 37.5844 48.662C37.0097 45.1639 37.3212 41.5781 38.1259 38.1423C38.2937 37.4269 38.487 36.7192 38.6879 36.0114L38.2213 36.202C42.1104 38.5184 46.6301 39.6747 51.0723 40.3698C55.8502 41.1367 60.7095 41.2597 65.5202 40.7357C68.2661 40.4387 70.9755 39.8692 73.6086 39.0356L73.217 38.8132C73.9519 42.0793 74.3649 45.4095 74.4502 48.756C74.4566 49.0102 74.8075 49.202 74.9931 48.9809C75.8665 47.9377 76.5365 46.6862 77.0909 45.4524C78.3957 42.5764 78.9771 39.4251 78.7844 36.2732C78.6109 33.8848 78.0277 31.5441 77.0604 29.3532C76.8976 28.9797 76.3509 29.3024 76.5111 29.6747C78.0266 33.1792 78.586 37.0648 77.8829 40.8323C77.4462 43.1943 76.563 45.4514 75.2805 47.4828C75.1037 47.7611 74.9193 48.0343 74.7235 48.2986L74.6307 48.4257C74.5824 48.4892 74.6778 48.3672 74.604 48.4587C74.5837 48.4841 74.5646 48.5095 74.543 48.5337L75.0859 48.7586C74.9982 45.3533 74.5767 41.9648 73.8273 38.6417C73.8041 38.5611 73.7503 38.4928 73.6773 38.4515C73.6043 38.4101 73.518 38.399 73.437 38.4206C68.8117 39.9123 63.9208 40.4727 59.0705 40.4104C54.5294 40.3699 50.0122 39.7473 45.6296 38.5578C43.1491 37.8717 40.7538 36.9708 38.5366 35.6506C38.4945 35.6266 38.4475 35.6124 38.3991 35.6092C38.3507 35.606 38.3022 35.6138 38.2573 35.632C38.2124 35.6502 38.1722 35.6784 38.1397 35.7144C38.1073 35.7505 38.0834 35.7933 38.07 35.8399C37.1508 39.0775 36.5444 42.4117 36.6626 45.7891C36.699 46.8076 36.8005 47.8228 36.9664 48.8284L37.4979 48.5184C36.0269 46.803 35.109 44.6773 34.5623 42.5006C34.0322 40.3522 33.8223 38.1373 33.9393 35.9276C33.9852 34.8655 34.1235 33.8094 34.3525 32.7713C34.3674 32.7172 34.3678 32.6602 34.3535 32.6059C34.3392 32.5517 34.3108 32.5022 34.2712 32.4625C33.074 31.3714 31.9791 30.1732 30.9999 28.8831C30.4609 28.1639 29.8977 27.4003 29.5455 26.568L28.9962 26.8882C29.1564 27.2262 29.7171 27.3545 30.0362 27.4473C30.7156 27.6319 31.4092 27.7594 32.1098 27.8285C32.9375 27.9271 33.7722 27.9522 34.6043 27.9034C35.3671 27.8539 36.1566 27.7433 36.8698 27.4473C38.2048 26.8933 39.3312 25.8539 40.4004 24.906C41.7875 23.6798 43.1376 22.4053 44.6213 21.2922C46.1877 20.1169 47.885 19.1842 49.7907 18.69C51.6886 18.1862 53.6752 18.1137 55.6047 18.4778C56.0782 18.5708 56.5453 18.6939 57.0032 18.8463C57.2244 18.92 57.4423 19.0004 57.6567 19.0877C57.7427 19.1334 57.8324 19.1717 57.925 19.202C58.0902 19.2376 58.286 19.1487 58.4462 19.1106C59.5549 18.8701 60.6951 18.8096 61.823 18.9314C63.8381 19.1131 65.8621 19.5667 67.6827 20.4562C71.1345 22.1525 74.0828 25.0673 75.9097 28.4422C76.125 28.8386 76.3225 29.2435 76.5022 29.6569C76.6751 30.0483 77.2231 29.7255 77.0604 29.3532Z" fill="#0041E2"/>
<path d="M61.4046 63.6226C61.4046 63.6226 60.1587 66 55.8615 66C51.5642 66 50.3196 63.6226 50.3196 63.6226" stroke="#0041E2" stroke-miterlimit="10" stroke-linecap="round"/>
<path d="M42.8528 46.8628C43.5889 45.1931 44.9454 44.2376 47.0229 44.0953C48.6629 43.9822 50.2267 44.8412 50.7785 46.2033" stroke="#0041E2" stroke-linecap="round" stroke-linejoin="round"/>
<path d="M67.5976 46.8628C66.8614 45.1931 65.5049 44.2376 63.4287 44.0953C61.7887 43.9822 60.2249 44.8412 59.6731 46.2033" stroke="#0041E2" stroke-linecap="round" stroke-linejoin="round"/>
</svg>
