<svg width="100%" height="100%" viewBox="0 0 122 120" fill="none" xmlns="http://www.w3.org/2000/svg">
<path d="M99.1992 42C111.516 42 121.5 32.598 121.5 21C121.5 9.40202 111.516 0 99.1992 0C86.8828 0 76.8984 9.40202 76.8984 21C76.8984 32.598 86.8828 42 99.1992 42Z" fill="#73EABA"/>
<path d="M15.9014 79.057C24.8217 76.765 34.7309 70.607 41.9 76.457C49.0692 82.307 46.8613 92.717 46.8613 92.717L51.8812 96.489L38.3191 100.945C38.3191 100.945 37.4227 89.9979 32.2267 87.7369C28.1647 85.7459 23.2574 86.882 19.7509 90.516C16.2444 94.15 16.9516 98.8 16.9516 101.701C16.9127 105.522 16.486 109.331 15.6774 113.076L17.6143 117.788H5.07608V90.188C5.07396 81.507 6.98636 81.349 15.9014 79.057V79.057Z" stroke="#101010" stroke-width="3" stroke-linejoin="bevel"/>
<path d="M1.65005 84.6689C1.65005 84.6689 11.6823 83.92 18.9661 80.655C23.5631 78.4898 27.5988 75.4 30.7878 71.604C30.0371 68.8276 29.8779 65.9386 30.3194 63.104C31.1594 59.192 32.1662 58.011 36.861 55.651C41.5559 53.291 46.2528 49.187 46.7742 44.615C46.8813 41.4739 46.7375 38.3297 46.3441 35.209C46.3441 35.209 40.513 44.3 35.4794 46.574C30.4458 48.848 26.6025 48.117 21.2068 48.437C15.8111 48.757 10.6012 49.4939 5.46991 57.5749C0.338601 65.6559 1.65005 84.6689 1.65005 84.6689V84.6689Z" fill="#F2F2F2" stroke="#101010" stroke-width="3" stroke-linejoin="bevel"/>
<path d="M60.6141 50.6382C76.7132 50.6386 93.4136 39.5091 99.4395 18.3323" stroke="#101010" stroke-width="3"/>
<path d="M30.5181 104.264H54.3916V120H30.5181V104.264Z" fill="#F2F2F2"/>
<path d="M32.111 105.764H52.7987V118.5H32.111V105.764Z" stroke="#101010" stroke-width="3" stroke-linejoin="bevel"/>
<path d="M48.4234 96.3949H71.1023V120H48.4234V96.3949Z" fill="#F2F2F2"/>
<path d="M50.0164 97.8949H69.5094V118.5H50.0164V97.8949Z" stroke="#101010" stroke-width="3" stroke-linejoin="bevel"/>
<path d="M65.1342 80.155H87.813V120H65.1342V80.155Z" fill="#F2F2F2"/>
<path d="M66.7271 81.655H86.2201V118.5H66.7271V81.655Z" stroke="#101010" stroke-width="3" stroke-linejoin="bevel"/>
<path d="M81.8449 54H105.718V120H81.8449V54Z" fill="#F2F2F2"/>
<path d="M83.4379 55.5H104.126V118.5H83.4379V55.5Z" stroke="#101010" stroke-width="3" stroke-linejoin="bevel"/>
<path d="M17.1429 46.2709C23.0759 46.2709 27.8855 41.7418 27.8855 36.1549C27.8855 30.568 23.0759 26.0389 17.1429 26.0389C11.2099 26.0389 6.40027 30.568 6.40027 36.1549C6.40027 41.7418 11.2099 46.2709 17.1429 46.2709Z" fill="#F2F2F2"/>
<path d="M17.1429 44.7709C22.1961 44.7709 26.2926 40.9134 26.2926 36.1549C26.2926 31.3965 22.1961 27.5389 17.1429 27.5389C12.0897 27.5389 7.99319 31.3965 7.99319 36.1549C7.99319 40.9134 12.0897 44.7709 17.1429 44.7709Z" stroke="#101010" stroke-width="3"/>
<path d="M89.2867 22.7361L100.184 16.6155L105.18 27.5988" stroke="#101010" stroke-width="3" stroke-linejoin="bevel"/>
</svg>
