<svg width="100%" height="100%" viewBox="0 0 123 122" fill="none" xmlns="http://www.w3.org/2000/svg">
<path d="M61.3318 70.6542C74.1687 70.6542 84.5751 60.1099 84.5751 47.1028C84.5751 34.0957 74.1687 23.5514 61.3318 23.5514C48.4948 23.5514 38.0884 34.0957 38.0884 47.1028C38.0884 60.1099 48.4948 70.6542 61.3318 70.6542Z" fill="#73EABA"/>
<path d="M60.7784 0V13.458" stroke="#101010" stroke-width="3"/>
<path d="M91.753 12.3361L82.3613 21.8523" stroke="#101010" stroke-width="3"/>
<path d="M30.3402 12.3367L39.732 21.8529" stroke="#101010" stroke-width="3"/>
<path d="M121.024 119.934L80.0561 120C80.0561 120 83.5526 93.0785 80.7202 87.0011C77.8878 80.9237 75.0012 80.4505 67.8389 70.7742C63.5846 65.1083 61.3597 58.1441 61.53 51.0269V40.764C61.53 40.764 65.964 53.6612 72.7356 60.1524C79.5071 66.6437 83.9643 66.3543 87.5328 66.3543C91.1012 66.3543 107.44 66.2837 115.654 78.5597C123.868 90.8356 121.024 119.934 121.024 119.934Z" fill="#FFFFFF" stroke="#101010" stroke-width="3" stroke-linejoin="bevel"/>
<path d="M99.3823 64.523C106.367 64.523 112.029 58.7859 112.029 51.7088C112.029 44.6317 106.367 38.8945 99.3823 38.8945C92.3978 38.8945 86.7357 44.6317 86.7357 51.7088C86.7357 58.7859 92.3978 64.523 99.3823 64.523Z" fill="#FFFFFF"/>
<path d="M99.3823 62.8407C105.45 62.8407 110.369 57.8568 110.369 51.7088C110.369 45.5607 105.45 40.5768 99.3823 40.5768C93.3147 40.5768 88.3959 45.5607 88.3959 51.7088C88.3959 57.8568 93.3147 62.8407 99.3823 62.8407Z" stroke="#101010" stroke-width="3"/>
<path d="M109.814 119.934C109.814 119.934 110.57 102.019 109.064 90.1929" stroke="#101010" stroke-width="3"/>
<path d="M1.97593 119.934L42.944 120C42.944 120 39.4476 93.0785 42.28 87.0011C45.1123 80.9237 47.9989 80.4505 55.1612 70.7742C59.4155 65.1083 61.6405 58.1441 61.4701 51.0269V40.764C61.4701 40.764 57.0362 53.6612 50.2646 60.1524C43.493 66.6437 39.0358 66.3543 35.4674 66.3543C31.899 66.3543 15.5601 66.2837 7.34631 78.5597C-0.867449 90.8356 1.97593 119.934 1.97593 119.934Z" fill="#FFFFFF" stroke="#101010" stroke-width="3" stroke-linejoin="bevel"/>
<path d="M23.6199 64.523C30.6044 64.523 36.2665 58.7859 36.2665 51.7088C36.2665 44.6317 30.6044 38.8945 23.6199 38.8945C16.6354 38.8945 10.9733 44.6317 10.9733 51.7088C10.9733 58.7859 16.6354 64.523 23.6199 64.523Z" fill="#FFFFFF"/>
<path d="M23.6199 62.8407C29.6875 62.8407 34.6063 57.8568 34.6063 51.7088C34.6063 45.5607 29.6875 40.5768 23.6199 40.5768C17.5523 40.5768 12.6336 45.5607 12.6336 51.7088C12.6336 57.8568 17.5523 62.8407 23.6199 62.8407Z" stroke="#101010" stroke-width="3"/>
<path d="M13.1869 119.934C13.1869 119.934 12.4311 102.019 13.9375 90.194" stroke="#101010" stroke-width="3"/>
</svg>